<!--?xml version="1.0" standalone="no"?-->
              <!--?xml version="1.0" standalone="no"?-->              <svg id="sw-js-blob-svg" viewBox="0 0 100 100" xmlns="http://www.w3.org/2000/svg" version="1.1">                    <defs>                         <linearGradient id="sw-gradient" x1="0" x2="1" y1="1" y2="0">                            <stop id="stop1" stop-color="rgba(248, 117, 55, 1)" offset="0%"></stop>                            <stop id="stop2" stop-color="rgba(251, 168, 31, 1)" offset="100%"></stop>                        </linearGradient>                    </defs>                <path fill="url(#sw-gradient)" d="M16.7,-19.5C22.4,-15.1,28.2,-10.6,30.5,-4.4C32.8,1.8,31.4,9.6,27.8,16.3C24.2,22.9,18.3,28.5,11.5,30.5C4.7,32.5,-3,31,-11.1,28.8C-19.2,26.6,-27.7,23.8,-31.3,17.9C-34.8,12.1,-33.4,3.2,-30.9,-4.5C-28.4,-12.3,-24.9,-18.9,-19.6,-23.4C-14.3,-27.8,-7.1,-30.1,-0.8,-29.1C5.5,-28.1,11,-23.9,16.7,-19.5Z" width="100%" height="100%" transform="translate(50 50)" stroke-width="0" style="transition: all 0.3s ease 0s;"></path>              </svg>